<?xml version="1.0" standalone="no"?>
<!DOCTYPE svg PUBLIC "-//W3C//DTD SVG 20010904//EN"
 "http://www.w3.org/TR/2001/REC-SVG-20010904/DTD/svg10.dtd">
<svg version="1.0" xmlns="http://www.w3.org/2000/svg"
 width="512.000000pt" height="512.000000pt" viewBox="0 0 512.000000 512.000000"
 preserveAspectRatio="xMidYMid meet">
<metadata>
Created by potrace 1.16, written by Peter Selinger 2001-2019
</metadata>
<g transform="translate(0.000000,512.000000) scale(0.100000,-0.100000)"
fill="#ffffff" stroke="none">
<path d="M2315 5109 c-835 -85 -1565 -560 -1983 -1289 -295 -516 -398 -1135
-287 -1736 166 -899 829 -1659 1700 -1950 418 -140 853 -170 1291 -89 900 167
1658 828 1950 1701 81 241 121 463 131 724 33 887 -401 1730 -1146 2224 -312
208 -673 345 -1055 402 -123 18 -478 26 -601 13z m595 -114 c980 -142 1786
-864 2030 -1820 60 -232 74 -354 74 -615 0 -261 -14 -382 -74 -616 -211 -826
-852 -1493 -1673 -1740 -243 -73 -432 -99 -712 -98 -256 0 -380 15 -611 74
-861 220 -1544 903 -1764 1765 -61 239 -74 346 -74 610 0 266 14 385 74 621
211 826 852 1493 1673 1740 116 35 290 71 397 83 52 6 109 13 125 15 68 10
427 -3 535 -19z"/>
<path d="M2023 3376 c-82 -20 -161 -64 -223 -125 -96 -94 -140 -205 -140 -356
0 -150 43 -260 139 -356 94 -93 209 -139 351 -139 143 0 257 46 352 141 191
190 190 522 -2 710 -121 118 -305 166 -477 125z m282 -107 c45 -17 76 -38 125
-88 79 -79 109 -147 117 -262 13 -172 -76 -323 -234 -397 -52 -24 -70 -27
-163 -27 -97 0 -110 2 -170 31 -111 53 -184 141 -214 259 -60 229 66 448 291
505 59 15 180 5 248 -21z"/>
<path d="M696 3365 c-15 -15 -16 -62 -14 -478 l3 -462 27 -9 c22 -8 32 -6 48
9 19 17 20 31 22 393 l3 375 299 -392 c268 -351 302 -392 325 -389 49 6 51 20
50 483 -1 237 -5 440 -9 452 -11 27 -43 38 -70 23 -19 -10 -20 -21 -22 -397
l-3 -386 -300 394 c-206 270 -307 395 -321 397 -12 2 -29 -4 -38 -13z"/>
<path d="M2766 3364 c-9 -8 -16 -23 -16 -32 1 -9 68 -109 149 -222 l148 -204
-73 -101 c-260 -353 -260 -355 -232 -383 28 -28 57 -13 103 51 188 258 261
356 267 357 4 0 75 -94 158 -210 119 -165 156 -210 174 -210 28 0 46 18 46 45
0 11 -70 117 -155 235 l-154 213 47 66 c25 36 93 129 149 205 106 143 120 176
83 196 -41 22 -35 29 -280 -307 -33 -46 -63 -83 -67 -83 -5 1 -64 80 -133 176
-170 238 -177 246 -214 208z"/>
<path d="M3686 3361 c-16 -17 -17 -50 -14 -367 l3 -349 28 -57 c36 -73 111
-139 191 -170 86 -32 245 -32 328 1 75 29 150 98 185 169 l28 57 3 349 c3 317
1 350 -14 367 -23 25 -49 24 -68 -3 -14 -19 -16 -70 -16 -354 l0 -332 -28 -52
c-100 -192 -433 -182 -523 15 -17 36 -19 72 -19 376 0 313 -1 337 -18 352 -24
22 -45 21 -66 -2z"/>
<path d="M3394 2317 c-3 -8 -4 -131 -2 -273 3 -241 4 -261 23 -286 34 -45 100
-64 124 -34 18 21 2 46 -29 46 -52 0 -55 11 -60 294 l-5 261 -23 3 c-12 2 -24
-3 -28 -11z"/>
<path d="M1641 2136 c-8 -9 -11 -75 -9 -217 l3 -204 25 0 25 0 5 150 c3 93 10
158 18 172 19 34 53 53 95 53 90 0 107 -34 107 -217 0 -76 4 -144 9 -151 5 -8
17 -12 27 -10 17 3 19 17 24 153 5 155 12 181 52 209 26 18 90 21 119 6 40
-22 49 -61 49 -214 0 -136 1 -145 20 -151 11 -3 24 -3 30 0 6 4 10 68 10 162
0 148 -1 158 -25 198 -32 56 -80 79 -151 73 -41 -4 -63 -12 -92 -35 -37 -30
-39 -30 -51 -11 -32 51 -145 64 -205 23 -33 -22 -36 -23 -36 -6 0 10 -7 22
-16 25 -21 8 -20 8 -33 -8z"/>
<path d="M2479 2127 c-24 -13 -57 -43 -74 -66 -26 -37 -30 -53 -33 -119 -3
-66 0 -83 21 -122 13 -25 43 -58 66 -75 36 -25 54 -30 114 -33 60 -3 80 1 117
20 30 15 46 30 48 46 4 27 -20 29 -66 6 -52 -25 -98 -28 -147 -9 -49 18 -95
73 -95 112 0 23 0 23 169 23 143 0 170 2 175 15 9 24 -13 111 -37 147 -50 74
-172 100 -258 55z m176 -53 c29 -19 50 -50 59 -86 l6 -28 -145 0 c-159 0 -161
1 -130 60 16 30 57 64 90 73 30 8 94 -2 120 -19z"/>
<path d="M2984 2137 c-92 -36 -138 -105 -138 -207 0 -132 84 -220 209 -220 59
0 107 17 143 50 27 25 36 25 29 0 -3 -10 1 -27 8 -37 11 -14 18 -16 32 -7 26
16 31 206 8 279 -39 120 -175 186 -291 142z m158 -63 c92 -47 111 -190 35
-264 -81 -79 -208 -57 -258 46 -69 144 80 290 223 218z"/>
</g>
</svg>
